<svg width="256" height="256" viewBox="0 0 256 256" fill="none" xmlns="http://www.w3.org/2000/svg">
<g clip-path="url(#clip0_3_2)">
<circle cx="128" cy="128" r="128" fill="url(#paint0_linear_3_2)"/>
<circle cx="128" cy="128" r="118" stroke="#E0E0E0" stroke-width="11"/>
<path d="M65.7341 187.5L35.3651 76.518H58.2611L72.0941 132.645L80.2031 167.625H81.3161L89.5841 132.645L103.576 76.518H125.359L94.9901 187.5H65.7341ZM215.45 187.5H137.222V168.102L172.838 137.733C178.774 132.645 183.173 128.034 186.035 123.9C188.897 119.66 190.328 115.155 190.328 110.385V108.795C190.328 103.495 188.844 99.467 185.876 96.711C182.908 93.955 178.774 92.577 173.474 92.577C167.644 92.577 163.192 94.167 160.118 97.347C157.044 100.527 154.818 104.449 153.44 109.113L135.314 102.276C136.48 98.672 138.123 95.227 140.243 91.941C142.469 88.549 145.172 85.581 148.352 83.037C151.638 80.493 155.507 78.479 159.959 76.995C164.411 75.405 169.499 74.61 175.223 74.61C181.159 74.61 186.406 75.458 190.964 77.154C195.628 78.744 199.55 81.023 202.73 83.991C205.91 86.853 208.295 90.298 209.885 94.326C211.581 98.354 212.429 102.753 212.429 107.523C212.429 112.081 211.687 116.268 210.203 120.084C208.825 123.9 206.864 127.557 204.32 131.055C201.776 134.447 198.755 137.733 195.257 140.913C191.865 144.093 188.155 147.273 184.127 150.453L159.959 170.01H215.45V187.5Z" fill="#E0E0E0"/>
</g>
<defs>
<linearGradient id="paint0_linear_3_2" x1="128" y1="0" x2="128" y2="256" gradientUnits="userSpaceOnUse">
<stop stop-color="#FF007A" stop-opacity="0.77"/>
<stop offset="1" stop-color="#0094FF"/>
</linearGradient>
<clipPath id="clip0_3_2">
<rect width="256" height="256" fill="white"/>
</clipPath>
</defs>
</svg>
